# xmcd CD database file
#
# Track frame offsets:
#	150
#	16405
#	35352
#	52877
#	66245
#	84830
#	97705
#	113910
#	132435
#	150702
#	166402
#
# Disc length: 2507 seconds
#
# Revision: 5
# Processed by: cddbd v1.5.2PL0 Copyright (c) Steve Scherf et al.
# Submitted via: CDex 1.51
#
DISCID=7e09c90b
DTITLE=Sugarland - Twice The Speed Of Life
DYEAR=2004
DGENRE=Country
TTITLE0=Something More
TTITLE1=Baby Girl
TTITLE2=Hello
TTITLE3=Tennessee
TTITLE4=Just Might (Make Me Believe)
TTITLE5=Down In Mississippi (Up To No Good)
TTITLE6=Fly Away
TTITLE7=Speed Of Life
TTITLE8=Small Town Jericho
TTITLE9=Time, Time, Time
TTITLE10=Stand Back Up
EXTD=YEAR: 2004
EXTT0=
EXTT1=
EXTT2=
EXTT3=
EXTT4=
EXTT5=
EXTT6=
EXTT7=
EXTT8=
EXTT9=
EXTT10=
PLAYORDER=
